<?xml version="1.0" standalone="no"?>
<!DOCTYPE svg PUBLIC "-//W3C//DTD SVG 20010904//EN"
 "http://www.w3.org/TR/2001/REC-SVG-20010904/DTD/svg10.dtd">
<svg version="1.0" xmlns="http://www.w3.org/2000/svg"
 width="1389.000000pt" height="1281.000000pt" viewBox="0 0 1389.000000 1281.000000"
 preserveAspectRatio="xMidYMid meet">

<g transform="translate(0.000000,1281.000000) scale(0.100000,-0.100000)"
fill="#fff" stroke="none">
<path d="M6845 12743 c-98 -58 -115 -68 -220 -128 -55 -31 -116 -66 -135 -78
-19 -11 -55 -31 -80 -45 -25 -14 -72 -42 -105 -62 -33 -20 -98 -57 -145 -84
-47 -26 -107 -61 -135 -78 -27 -17 -72 -43 -100 -58 -27 -15 -66 -37 -85 -48
-19 -12 -57 -33 -85 -48 -27 -14 -57 -32 -65 -39 -8 -7 -51 -31 -95 -55 -44
-23 -91 -50 -105 -60 -44 -30 -310 -180 -320 -180 -6 0 -10 -3 -10 -8 0 -4
-21 -18 -47 -32 -27 -13 -62 -35 -79 -47 -17 -13 -34 -23 -38 -23 -7 0 -276
-154 -516 -295 -121 -71 -357 -206 -445 -255 -33 -18 -67 -38 -75 -44 -8 -6
-33 -20 -55 -31 -22 -11 -53 -29 -70 -41 -16 -12 -52 -34 -80 -48 -27 -15 -95
-53 -150 -86 -109 -64 -263 -152 -310 -178 -16 -9 -48 -27 -69 -41 -22 -13
-65 -37 -95 -53 -31 -17 -72 -40 -91 -53 -32 -20 -104 -61 -230 -133 -25 -14
-79 -45 -120 -69 -41 -24 -82 -48 -90 -52 -40 -21 -116 -64 -125 -71 -5 -4
-30 -19 -55 -32 -96 -53 -246 -142 -273 -160 -15 -11 -37 -38 -50 -61 l-22
-42 0 -2745 c0 -2512 1 -2748 16 -2785 9 -22 25 -47 35 -56 18 -16 209 -129
217 -129 2 0 57 -32 123 -72 65 -39 148 -87 184 -106 36 -19 89 -50 118 -69
29 -18 55 -33 58 -33 3 0 30 -16 60 -35 30 -19 56 -35 59 -35 3 0 234 -132
315 -180 53 -32 221 -128 250 -143 19 -10 46 -26 60 -35 14 -9 46 -28 72 -42
25 -14 70 -39 100 -55 226 -130 298 -171 328 -190 42 -27 353 -206 430 -249
57 -31 182 -102 310 -176 41 -24 77 -47 80 -51 3 -3 41 -26 85 -50 44 -23 134
-74 200 -112 198 -115 237 -137 241 -137 2 0 35 -20 74 -45 39 -25 72 -45 74
-45 2 0 42 -22 89 -50 47 -27 87 -50 90 -50 3 0 34 -18 68 -40 35 -21 98 -58
139 -81 41 -23 119 -68 173 -100 54 -33 99 -59 101 -59 2 0 55 -30 117 -67 63
-36 155 -90 204 -118 237 -136 291 -168 306 -181 8 -8 23 -14 32 -14 9 0 19
-4 22 -10 3 -5 22 -10 40 -10 35 0 85 24 235 113 47 27 110 63 140 80 30 16
114 64 185 107 72 42 157 92 190 110 33 18 104 60 158 92 54 32 100 58 103 58
2 0 23 12 47 27 43 27 260 153 287 166 8 4 24 13 35 20 11 7 43 25 70 41 28
16 82 48 120 71 39 23 102 59 140 80 39 20 90 51 114 67 24 16 83 50 130 75
47 25 104 57 126 70 70 43 157 93 209 120 28 15 62 35 76 44 14 9 99 59 190
111 91 53 248 144 350 203 102 59 246 141 320 182 74 41 142 81 150 88 8 7 42
27 75 44 33 18 67 38 75 45 8 7 40 25 70 41 30 16 69 37 85 47 17 9 48 27 70
39 22 12 76 43 120 69 44 27 99 59 122 72 89 50 372 212 453 260 47 28 119 68
160 90 41 22 82 46 90 53 8 7 35 23 60 35 53 26 96 64 116 102 12 23 14 432
14 2795 l0 2768 -30 37 c-27 33 -54 51 -190 126 -69 38 -164 93 -290 167 -63
37 -135 79 -159 93 -25 13 -68 38 -95 54 -28 17 -89 50 -136 75 -47 25 -96 54
-110 63 -14 10 -43 27 -65 39 -22 12 -53 30 -70 41 -16 10 -46 27 -65 37 -19
9 -86 48 -148 85 -62 37 -114 68 -116 68 -2 0 -43 23 -92 52 -49 28 -116 67
-149 86 -33 19 -73 42 -90 52 -16 10 -84 48 -150 85 -66 37 -136 78 -155 91
-19 13 -58 36 -86 51 -28 15 -148 84 -268 153 -119 69 -251 145 -294 169 -42
24 -121 70 -175 102 -54 33 -101 59 -104 59 -4 0 -21 11 -39 25 -18 14 -36 25
-39 25 -10 0 -223 121 -312 177 -28 18 -54 33 -56 33 -3 0 -51 27 -107 60 -56
33 -103 60 -105 60 -2 0 -39 22 -82 48 -43 26 -89 53 -103 60 -14 7 -34 18
-45 25 -11 7 -51 30 -90 52 -38 22 -79 45 -90 52 -11 7 -29 16 -41 22 -11 5
-40 22 -65 39 -24 16 -71 44 -104 61 -33 18 -109 62 -170 98 -60 36 -135 79
-165 96 -30 16 -62 35 -70 42 -8 6 -40 24 -69 38 -75 37 -121 34 -196 -10z
m196 -231 c30 -16 101 -56 157 -90 57 -34 105 -62 107 -62 2 0 187 -106 277
-159 15 -9 94 -54 175 -101 81 -47 168 -97 193 -112 25 -15 77 -45 115 -67 39
-22 95 -55 125 -72 30 -18 73 -42 95 -54 53 -29 217 -124 280 -162 28 -17 154
-90 280 -163 127 -73 244 -140 260 -150 17 -9 136 -78 265 -152 129 -75 291
-168 360 -208 69 -40 172 -100 230 -133 58 -33 119 -68 135 -77 28 -16 173
-100 470 -273 66 -38 164 -95 218 -126 54 -31 105 -61 115 -66 9 -6 64 -37
122 -69 58 -33 123 -72 145 -87 22 -14 105 -58 185 -96 80 -38 160 -82 178
-98 46 -38 78 -91 88 -145 5 -26 7 -1170 4 -2650 -5 -2456 -6 -2607 -22 -2637
-17 -29 -76 -83 -92 -83 -4 0 -19 -8 -34 -19 -23 -15 -139 -82 -292 -168 -19
-11 -101 -59 -183 -106 -81 -48 -150 -87 -153 -87 -3 0 -28 -15 -57 -33 -29
-18 -95 -57 -147 -87 -52 -29 -108 -61 -125 -70 -31 -17 -263 -152 -325 -188
-19 -12 -57 -34 -85 -50 -27 -15 -126 -73 -220 -127 -93 -54 -258 -148 -365
-210 -107 -62 -292 -169 -410 -237 -230 -133 -662 -383 -720 -416 -172 -98
-647 -373 -697 -403 -35 -22 -65 -39 -67 -39 -3 0 -39 -20 -81 -45 -288 -171
-533 -307 -564 -314 -49 -11 -97 5 -196 64 -44 26 -208 122 -365 212 -373 216
-475 275 -593 345 -54 32 -100 58 -102 58 -5 0 -301 171 -345 199 -14 8 -41
24 -60 34 -19 11 -98 56 -175 102 -137 80 -358 208 -580 335 -282 161 -437
251 -474 275 -22 14 -43 25 -45 25 -2 0 -51 28 -108 62 -56 33 -123 72 -148
86 -55 31 -328 188 -465 267 -184 107 -569 328 -645 370 -41 23 -122 70 -178
104 -57 33 -106 61 -109 61 -13 0 -76 57 -88 80 -12 22 -14 442 -15 2661 -2
2335 0 2638 13 2669 28 63 64 92 257 201 52 30 104 59 115 66 11 7 27 15 35
19 7 4 42 25 77 46 34 21 65 38 69 38 3 0 18 8 32 18 15 11 56 35 92 54 36 20
121 68 190 108 68 40 138 81 155 90 16 9 89 51 160 92 72 42 146 85 165 96 19
11 91 52 159 91 68 39 126 71 127 71 2 0 32 17 66 38 55 34 484 281 608 350
24 14 83 48 130 77 47 28 117 68 155 89 39 21 86 48 105 61 45 28 280 165 284
165 2 0 43 23 92 52 49 28 148 85 219 126 72 41 178 103 238 138 59 35 110 64
113 64 3 0 18 8 32 19 15 10 47 29 72 43 93 52 217 123 277 160 34 21 64 38
67 38 2 0 50 27 105 60 56 33 103 60 105 60 3 0 40 22 83 49 43 26 98 59 122
72 24 13 58 32 75 41 46 25 95 22 157 -10z"/>
<path d="M6183 11242 c-39 -4 -75 -11 -80 -15 -4 -5 -8 -906 -9 -2003 -1
-1517 -4 -1997 -13 -2008 -6 -7 -26 -20 -44 -27 -243 -95 -474 -273 -605 -466
-174 -257 -249 -619 -192 -936 26 -146 43 -201 102 -327 145 -307 480 -568
854 -666 211 -55 480 -39 679 41 116 46 225 103 328 171 109 73 133 101 120
138 -9 26 -214 243 -256 270 -37 25 -72 14 -137 -39 -81 -67 -186 -114 -313
-141 -246 -52 -549 50 -729 246 -98 105 -194 308 -157 331 8 5 278 9 607 9
485 0 599 3 626 14 50 21 67 75 69 220 2 117 2 118 -26 142 l-28 24 -617 0
c-351 0 -623 4 -631 9 -12 8 -13 16 -2 53 59 202 232 383 446 466 156 61 292
75 443 47 98 -19 197 -57 241 -93 9 -7 32 -25 51 -41 73 -59 116 -67 172 -33
48 30 248 248 248 271 0 42 -125 141 -290 228 -85 45 -220 93 -330 118 -44 10
-84 25 -97 38 l-23 20 0 543 0 542 26 17 c24 16 69 17 551 14 l524 -4 20 25
c11 14 24 35 29 48 11 27 13 169 3 290 -6 78 -8 84 -32 94 -16 6 -185 9 -441
8 -350 -1 -418 1 -435 14 -19 13 -20 28 -23 215 -3 191 -2 201 17 220 20 20
32 21 324 21 298 0 302 0 329 23 l27 22 3 182 c3 180 3 182 -21 207 -41 44
-79 50 -218 36 -130 -13 -310 -9 -374 10 -56 16 -79 48 -90 126 -13 85 1 285
21 310 13 14 54 16 410 14 217 -1 409 -2 426 -1 24 1 37 10 58 40 l27 39 -5
173 c-3 96 -5 177 -5 181 -1 4 -14 14 -31 23 -25 13 -101 15 -538 15 -457 0
-548 4 -574 23 -1 1 -4 101 -8 222 l-5 220 -28 13 c-33 16 -260 24 -374 14z"/>
<path d="M9388 7341 c-94 -5 -121 -10 -135 -24 -17 -17 -18 -79 -21 -1150 -2
-623 0 -1151 3 -1175 6 -37 11 -46 38 -57 49 -20 1347 -26 1371 -6 44 37 48
64 41 258 -7 181 -8 184 -33 204 -25 19 -38 20 -458 18 -301 -1 -438 2 -452
10 -12 6 -24 25 -27 44 -8 41 2 1608 10 1707 6 68 4 78 -17 110 -44 65 -89 74
-320 61z"/>
<path d="M7589 7318 l-29 -18 0 -1170 c0 -1157 0 -1170 20 -1190 20 -20 33
-20 700 -20 l681 0 24 25 c25 24 25 25 25 218 0 177 -2 197 -19 218 l-19 24
-424 1 c-232 1 -435 5 -451 9 -15 4 -33 17 -40 29 -9 16 -13 241 -17 938 -4
821 -7 919 -21 933 -13 14 -47 16 -209 18 -168 2 -197 0 -221 -15z"/>
<path d="M4190 7255 c-164 -21 -272 -55 -432 -137 -336 -172 -566 -486 -649
-888 -20 -95 -17 -354 5 -458 50 -235 159 -443 320 -611 189 -195 397 -311
671 -373 80 -17 389 -18 470 0 158 35 338 107 440 175 89 60 169 127 177 148
13 33 -7 61 -135 192 -96 98 -131 127 -151 127 -15 0 -63 -25 -114 -60 -177
-119 -344 -162 -540 -140 -189 21 -338 93 -469 227 -101 102 -175 229 -214
363 -21 73 -18 331 5 405 80 259 255 446 505 539 127 48 307 58 447 26 116
-27 167 -51 234 -109 30 -26 65 -53 77 -59 30 -16 78 -15 111 2 26 14 114 101
215 213 47 52 47 53 32 82 -37 73 -271 218 -450 279 -99 34 -174 50 -289 61
-126 13 -137 12 -266 -4z"/>
<path d="M8315 4110 c-105 -16 -210 -87 -257 -173 -48 -90 -52 -108 -52 -236
-1 -137 12 -196 57 -269 29 -45 100 -106 137 -117 14 -4 31 -12 39 -18 8 -7
62 -11 135 -11 99 0 127 3 156 18 45 24 50 32 50 82 0 58 -18 71 -76 56 -24
-7 -80 -12 -123 -12 -64 0 -84 4 -111 23 -48 32 -70 67 -86 133 -17 73 -17
131 0 209 16 75 26 94 70 133 48 42 103 49 199 26 41 -9 82 -14 91 -11 19 8
56 65 56 89 0 51 -165 97 -285 78z"/>
<path d="M5428 4085 c-76 -40 -112 -109 -110 -210 1 -101 36 -148 170 -228 81
-48 142 -105 142 -133 0 -24 -28 -71 -45 -78 -30 -11 -123 -6 -182 10 -100 28
-98 29 -98 -46 l0 -65 50 -24 c42 -21 65 -25 150 -25 92 -1 105 2 159 29 39
20 69 45 90 73 28 40 31 51 31 120 0 123 -32 166 -190 256 -91 52 -115 78
-115 124 0 28 7 45 24 61 26 24 58 25 179 5 44 -7 64 5 84 55 13 29 12 35 -2
51 -23 25 -131 50 -217 50 -57 -1 -83 -6 -120 -25z"/>
<path d="M6131 4088 c-19 -11 -43 -74 -148 -391 -69 -208 -122 -384 -119 -392
4 -11 22 -15 64 -15 70 0 85 12 107 88 10 32 26 60 46 76 29 25 36 26 149 26
131 0 133 -1 149 -70 19 -84 71 -127 142 -115 22 4 43 13 46 21 3 8 -31 123
-75 257 -44 133 -97 295 -117 360 -49 155 -54 161 -146 165 -47 2 -83 -2 -98
-10z m109 -206 c0 -10 3 -22 7 -26 12 -12 43 -119 49 -173 l7 -53 -82 0 c-62
0 -83 3 -87 14 -3 8 4 52 16 98 38 148 43 158 67 158 16 0 23 -6 23 -18z"/>
<path d="M6723 4093 c-46 -9 -47 -15 -49 -386 -3 -394 -2 -401 61 -413 41 -7
91 10 105 37 6 10 10 72 10 139 0 120 0 120 26 132 43 20 49 13 156 -182 69
-126 86 -138 170 -120 32 7 61 16 63 20 4 7 -41 97 -75 150 -5 8 -30 51 -56
95 -26 44 -53 87 -59 95 -25 31 -33 75 -20 106 10 24 120 180 195 276 27 35
20 45 -33 53 -82 12 -143 -26 -200 -123 -46 -79 -144 -212 -156 -212 -16 0
-18 23 -15 145 4 155 1 171 -38 184 -31 11 -45 12 -85 4z"/>
<path d="M7463 4092 c-30 -2 -44 -8 -48 -21 -3 -10 -7 -177 -10 -372 -4 -303
-2 -356 10 -376 15 -23 18 -23 225 -23 201 0 210 1 220 20 6 12 10 37 8 58 -4
51 -30 62 -155 62 -129 0 -143 10 -143 98 0 93 11 102 131 102 55 0 109 5 119
10 24 13 35 66 21 103 l-11 27 -110 0 c-99 0 -112 2 -131 21 -18 18 -21 30
-17 76 7 81 17 87 143 84 130 -3 155 8 155 68 0 61 -10 64 -198 65 -92 1 -186
0 -209 -2z"/>
<path d="M8126 1215 c-11 -8 -27 -15 -36 -15 -18 0 -71 -52 -89 -87 -6 -12
-11 -40 -11 -62 0 -79 71 -74 -990 -68 -845 5 -941 5 -955 -10 -26 -25 -12
-37 66 -56 105 -26 129 -51 129 -133 0 -83 -29 -154 -63 -154 -13 0 -32 9 -42
20 -10 11 -29 20 -42 20 -32 0 -30 -36 5 -76 15 -17 67 -80 116 -138 59 -73
93 -105 103 -102 8 3 17 6 19 6 2 0 4 8 4 18 0 9 -25 46 -55 80 -59 67 -68 99
-40 139 22 31 68 42 166 39 117 -2 119 -4 119 -127 0 -84 3 -100 18 -108 43
-23 47 -6 50 239 1 138 6 240 13 251 16 31 46 36 167 31 90 -4 114 -8 121 -21
9 -17 13 -145 5 -172 -3 -10 -29 -27 -60 -39 -64 -26 -84 -50 -84 -102 0 -54
17 -84 64 -109 l42 -22 41 22 c41 21 46 27 58 87 8 43 47 78 88 77 44 0 155
-18 164 -27 4 -4 8 -52 10 -108 1 -56 7 -106 12 -111 15 -15 49 10 55 40 3 16
5 108 4 206 -2 274 6 284 242 280 180 -3 182 -3 178 -55 l-3 -41 -60 -17 c-83
-24 -136 -53 -173 -95 -39 -44 -46 -71 -38 -141 13 -111 86 -171 194 -160 179
20 162 20 162 -7 0 -29 25 -93 41 -102 6 -4 18 0 27 8 14 15 13 24 -7 104 -48
185 -57 193 -113 106 -35 -54 -79 -70 -147 -53 -64 15 -92 52 -94 123 -1 59
21 108 57 132 13 9 57 19 98 22 40 3 85 12 101 20 25 12 27 18 27 72 0 40 5
63 15 71 9 8 53 14 113 15 152 4 141 25 144 -278 l3 -252 25 0 25 0 5 250 c3
138 9 256 13 263 5 7 30 12 62 12 44 0 57 -4 69 -22 9 -12 16 -29 16 -38 0 -9
10 -34 21 -55 75 -140 77 -147 57 -202 -15 -40 -2 -56 77 -97 58 -30 132 -34
209 -11 68 21 86 13 86 -34 0 -45 20 -77 44 -68 14 6 16 31 16 225 0 235 6
272 46 291 35 16 239 15 251 -1 15 -18 23 -146 11 -178 -6 -20 -20 -30 -48
-39 -22 -6 -52 -22 -67 -36 -24 -20 -28 -31 -27 -74 1 -57 19 -85 72 -108 48
-20 97 3 122 59 11 24 20 51 20 60 0 34 55 51 144 43 44 -4 87 -12 94 -17 8
-7 12 -41 12 -102 0 -106 12 -136 48 -117 22 12 22 16 22 256 0 274 -2 265 75
265 39 0 56 21 38 49 -9 14 -52 16 -404 16 -444 0 -401 -7 -527 85 -79 58
-205 121 -284 144 -73 21 -235 21 -262 1z m239 -58 c85 -14 165 -46 246 -99
50 -32 61 -56 34 -78 -22 -19 -18 -46 10 -64 32 -21 60 -77 76 -153 22 -106
-18 -188 -104 -211 -47 -13 -164 2 -187 23 -41 37 -18 99 49 133 48 24 60 47
39 69 -15 14 -22 15 -44 5 -53 -25 -134 16 -134 67 0 15 11 17 72 17 71 -1 72
-1 95 33 32 47 29 74 -12 116 -46 46 -91 47 -154 5 -42 -29 -48 -30 -157 -30
-102 0 -114 2 -124 19 -25 48 -7 102 43 128 67 35 129 40 252 20z m111 -181
c7 -30 -11 -66 -34 -66 -29 0 -44 16 -44 45 0 48 66 66 78 21z m-1980 -65 c17
-2 25 -28 30 -103 6 -91 -11 -108 -108 -108 -60 0 -72 3 -93 25 -21 20 -25 34
-25 79 0 75 12 104 47 108 24 3 117 2 149 -1z m677 0 c30 -12 47 -56 47 -122
0 -68 -29 -89 -119 -89 -53 0 -72 4 -88 20 -25 23 -38 93 -29 145 7 38 16 42
96 48 25 2 50 4 57 5 6 1 23 -2 36 -7z m2230 -41 c22 -42 18 -123 -6 -148 -18
-17 -127 -29 -170 -18 -31 7 -48 48 -50 119 -1 73 10 85 86 89 96 5 119 -2
140 -42z m-2510 -252 c13 -10 15 -20 9 -43 -7 -26 -13 -30 -43 -30 -30 0 -34
3 -37 28 -6 49 33 73 71 45z m2210 -10 c8 -12 7 -24 -1 -43 -10 -21 -18 -26
-40 -23 -23 3 -27 8 -30 40 -2 28 1 37 15 41 28 8 45 3 56 -15z"/>
<path d="M12260 1215 c-14 -8 -32 -15 -40 -15 -37 -1 -81 -74 -95 -162 -4 -22
-15 -42 -25 -48 -12 -6 -342 -10 -908 -10 -767 0 -891 -2 -902 -15 -14 -17 -6
-33 25 -45 13 -5 31 -20 40 -33 13 -20 14 -32 3 -78 -6 -30 -16 -60 -21 -66
-10 -14 -151 -19 -181 -7 -20 8 -20 41 -1 74 30 53 5 122 -57 160 -39 24 -153
28 -182 7 -24 -18 -17 -53 9 -48 11 2 45 3 75 2 68 -1 100 -30 100 -90 0 -54
-30 -87 -96 -107 -40 -11 -54 -20 -54 -34 0 -20 19 -30 55 -30 13 0 27 -4 30
-10 3 -5 13 -10 21 -10 8 0 29 -14 45 -31 29 -29 31 -36 26 -83 -4 -41 -10
-55 -37 -77 -56 -47 -128 -41 -208 19 -31 23 -34 24 -49 9 -16 -15 -15 -18 7
-42 33 -35 126 -77 171 -77 47 1 134 54 155 95 19 35 20 87 4 146 -6 23 -8 46
-5 51 10 17 138 12 163 -6 21 -14 22 -23 22 -128 0 -118 9 -146 45 -132 13 5
15 40 15 239 0 222 1 236 21 261 18 23 28 26 80 26 100 0 99 4 99 -279 0 -231
1 -240 20 -246 11 -3 24 -3 30 0 6 4 10 96 10 249 0 223 2 244 18 259 16 15
50 17 270 17 239 0 253 -1 272 -20 15 -15 20 -33 20 -70 0 -82 -15 -90 -164
-90 -163 0 -210 -7 -242 -37 -24 -22 -26 -29 -22 -94 5 -89 30 -119 106 -127
44 -4 52 -1 76 24 22 24 26 38 26 86 0 37 5 62 15 72 19 19 94 30 140 22 55
-11 65 -35 65 -161 0 -120 8 -147 37 -129 16 10 19 34 23 235 5 232 10 257 50
279 25 13 208 13 247 0 41 -15 66 -69 57 -126 -8 -53 -25 -69 -89 -85 -98 -23
-102 -32 -38 -100 85 -91 173 -118 289 -87 42 12 47 11 60 -7 8 -10 14 -33 14
-51 0 -41 9 -64 25 -64 35 0 37 23 32 463 0 53 26 67 122 67 47 0 92 -4 100
-9 11 -7 14 -59 15 -254 1 -259 5 -285 44 -261 15 10 18 38 22 251 4 183 8
244 19 256 12 15 43 17 256 17 279 0 283 -1 292 -81 4 -35 1 -50 -15 -69 -19
-24 -26 -25 -164 -30 -159 -6 -184 -15 -212 -75 -20 -42 -21 -117 -1 -158 8
-18 35 -58 60 -90 33 -42 52 -57 70 -57 35 0 32 29 -6 66 -78 73 -102 162 -59
216 41 52 246 62 298 15 19 -18 22 -31 23 -101 0 -45 3 -99 7 -121 6 -34 11
-40 32 -40 l25 0 3 251 2 252 28 10 c15 5 41 13 57 18 20 6 30 16 30 29 0 16
-10 21 -53 27 -48 7 -109 37 -143 70 -62 60 -213 144 -294 164 -79 18 -222 18
-255 -1z m285 -70 c73 -29 180 -87 205 -111 44 -43 24 -47 -262 -45 -291 2
-292 2 -292 66 0 45 34 81 94 100 56 19 198 13 255 -10z m-674 -242 c17 -17
32 -148 24 -208 -5 -43 -14 -63 -39 -90 -31 -32 -38 -35 -91 -35 -68 0 -132
17 -140 37 -3 9 8 26 26 41 17 15 43 45 57 67 23 35 26 49 25 112 -2 59 1 75
15 83 20 12 109 7 123 -7z m-913 -242 c9 -5 12 -25 10 -57 -3 -47 -4 -49 -35
-52 -54 -5 -79 58 -41 106 12 14 47 16 66 3z"/>
<path d="M3810 1170 c-34 -28 -35 -30 -33 -99 1 -39 7 -79 12 -90 6 -10 18
-54 28 -97 14 -63 17 -118 15 -269 -3 -201 4 -236 42 -222 14 6 16 32 16 240
0 225 1 235 22 262 20 25 25 27 80 23 32 -2 64 -10 71 -17 8 -8 13 -81 17
-254 l5 -242 28 -3 c16 -2 29 2 32 10 3 7 6 118 7 246 3 218 4 235 22 248 30
22 568 21 586 -1 7 -9 15 -49 18 -90 4 -72 4 -75 -26 -104 -41 -41 -71 -40
-125 7 -24 21 -58 44 -75 51 -86 36 -212 -54 -212 -150 0 -34 9 -55 56 -140
20 -35 86 -100 97 -96 18 6 21 39 6 51 -20 16 -66 86 -78 119 -31 81 2 157 67
157 52 0 112 -18 119 -36 6 -15 -14 -63 -31 -75 -14 -11 1 -39 21 -39 10 0 41
14 68 30 28 16 62 30 77 30 34 0 37 -12 41 -135 2 -78 4 -90 21 -93 10 -2 23
1 28 6 5 5 12 115 15 248 4 195 8 242 21 257 14 15 39 17 259 17 230 0 244 -1
263 -20 27 -27 27 -99 1 -131 -18 -23 -27 -24 -165 -30 -142 -5 -147 -6 -175
-33 -16 -15 -37 -45 -46 -67 -16 -35 -17 -44 -5 -82 8 -23 20 -55 28 -71 21
-44 102 -126 123 -126 28 0 23 32 -8 61 -106 96 -110 224 -8 253 62 18 206 15
236 -6 29 -18 39 -66 39 -188 0 -77 11 -100 37 -84 16 10 18 35 23 258 6 278
2 266 86 266 91 0 89 7 92 -272 2 -134 7 -247 12 -251 4 -5 17 -6 29 -2 21 6
21 11 21 254 l0 249 28 10 c15 6 43 13 62 14 28 2 36 8 38 26 2 12 -3 24 -11
28 -8 3 -385 6 -838 7 l-824 2 -43 28 c-23 15 -58 51 -76 80 -67 104 -165 136
-236 77z m133 -51 c31 -14 101 -105 94 -123 -4 -10 -23 -12 -72 -10 -86 4
-102 10 -120 44 -18 34 -19 54 -5 81 12 22 64 26 103 8z"/>
<path d="M293 1047 c-4 -7 -9 -194 -11 -417 -3 -335 -1 -408 11 -424 34 -46
37 -14 37 419 0 362 -2 424 -15 428 -8 4 -18 1 -22 -6z"/>
<path d="M13580 1040 c-7 -12 -9 -159 -8 -432 3 -395 4 -413 22 -416 10 -2 22
2 26 9 13 20 12 816 0 839 -14 25 -26 25 -40 0z"/>
<path d="M13837 1049 c-16 -9 -17 -40 -17 -423 0 -441 0 -442 48 -429 l22 5 0
413 c0 380 -1 413 -18 428 -12 11 -22 13 -35 6z"/>
<path d="M13 1035 c-10 -11 -13 -110 -13 -424 0 -404 0 -410 20 -416 50 -16
50 -13 48 434 -3 408 -3 416 -23 418 -11 2 -26 -4 -32 -12z"/>
<path d="M1640 980 c-660 -5 -705 -6 -708 -22 -5 -27 38 -38 152 -38 118 0
136 -10 136 -74 0 -50 -36 -86 -85 -86 -50 0 -75 -16 -75 -46 0 -24 1 -24 64
-18 86 9 127 -6 154 -55 32 -57 29 -112 -9 -155 -53 -61 -147 -73 -232 -31
-50 26 -51 26 -70 6 -16 -16 -18 -23 -8 -35 19 -23 72 -44 139 -55 54 -9 68
-7 109 11 102 44 163 119 163 200 0 37 -7 52 -51 105 -44 54 -50 67 -46 95 10
58 23 114 31 126 8 14 413 17 434 3 8 -5 12 -23 10 -47 -2 -31 -8 -40 -28 -46
-122 -33 -145 -43 -179 -74 -46 -41 -76 -112 -68 -160 9 -53 48 -124 85 -152
26 -20 43 -24 95 -24 35 0 72 4 83 10 10 5 32 12 49 13 25 3 32 -1 44 -26 8
-16 17 -43 21 -60 4 -24 11 -30 30 -30 36 0 36 34 2 151 -24 82 -33 100 -51
102 -16 3 -27 -8 -48 -42 -19 -31 -38 -50 -59 -56 -46 -15 -112 -2 -148 30
-27 25 -30 34 -31 86 0 123 29 153 163 165 99 9 112 19 110 85 -2 30 3 49 16
63 18 19 30 21 165 21 80 0 156 -3 169 -6 31 -9 52 -53 52 -111 -1 -66 -22
-91 -85 -99 -85 -11 -94 -34 -43 -103 61 -83 180 -119 293 -89 57 15 68 6 75
-65 5 -47 7 -52 30 -52 l25 0 5 253 c4 210 8 254 20 262 25 16 255 13 269 -4
17 -20 26 -158 12 -183 -7 -14 -31 -27 -66 -38 -62 -18 -85 -48 -85 -112 1
-66 76 -126 131 -105 36 15 79 58 79 82 0 37 28 78 62 89 25 8 51 7 107 -5 41
-8 78 -17 83 -20 4 -3 8 -49 8 -103 0 -78 3 -101 16 -112 11 -9 20 -10 32 -2
15 9 17 39 18 257 1 136 5 250 9 254 3 4 30 9 58 12 40 4 53 9 55 24 2 10 -1
23 -7 29 -13 13 -512 15 -1681 7z m808 -160 c17 -118 10 -161 -37 -210 -38
-40 -39 -40 -112 -40 -73 0 -119 16 -119 42 0 5 22 30 49 54 59 53 76 95 66
170 -3 29 -3 58 0 64 4 7 34 10 73 8 l67 -3 13 -85z m659 82 c17 -11 36 -98
29 -134 -11 -57 -30 -68 -113 -68 -41 0 -83 4 -93 10 -27 14 -45 109 -30 154
6 19 16 37 23 40 19 7 171 6 184 -2z m-294 -293 c5 -9 7 -28 3 -43 -6 -24 -11
-27 -44 -24 -33 3 -37 6 -40 33 -6 48 56 75 81 34z"/>
<path d="M3428 963 c-63 -68 -65 -116 -7 -168 38 -34 45 -37 81 -31 22 4 53
13 69 22 16 8 34 12 39 9 25 -16 -5 -116 -39 -135 -27 -14 -53 -13 -107 6 -42
14 -48 14 -62 1 -13 -14 -12 -19 13 -49 79 -94 212 -228 226 -228 34 0 28 30
-16 80 -60 68 -61 101 -4 155 52 51 79 104 79 156 0 68 -21 121 -67 167 -42
41 -44 42 -111 42 -62 0 -71 -3 -94 -27z m144 -50 c23 -21 23 -38 -2 -63 -25
-25 -86 -27 -112 -3 -22 20 -23 32 -2 61 19 27 88 31 116 5z"/>
<path d="M7200 305 c-84 -62 -91 -160 -16 -240 31 -33 37 -35 97 -35 103 0
182 41 147 76 -11 11 -21 10 -58 -2 -53 -19 -134 -14 -157 9 -9 8 -18 38 -21
65 -4 44 -2 51 23 70 15 12 34 22 42 22 20 0 13 54 -7 58 -9 1 -31 -9 -50 -23z"/>
<path d="M9443 275 c-7 -20 -14 -15 96 -64 65 -28 98 -38 105 -31 7 7 6 14 -1
21 -10 10 -178 89 -189 89 -3 0 -7 -7 -11 -15z"/>
<path d="M1900 211 c0 -14 22 -27 88 -55 48 -20 95 -36 104 -36 28 0 31 19 5
29 -14 5 -58 26 -100 45 -86 41 -97 43 -97 17z"/>
<path d="M7873 214 c-7 -19 -10 -17 86 -58 88 -38 106 -42 116 -26 4 6 -29 27
-77 49 -115 52 -118 53 -125 35z"/>
</g>
</svg>
