    <svg
      version="1.0"
      xmlns="http://www.w3.org/2000/svg"
      viewBox="0 0 1013.000000 1024.000000"
      preserveAspectRatio="xMidYMid meet"
      width="512.000000pt" height="512.000000pt"
    >
      <g
        transform="translate(0.000000,1024.000000) scale(0.100000,-0.100000)"
        fill="#fff"
        stroke="none"
      >
        <path
          d="M2842 10211 c-9 -16 -32 -57 -50 -92 l-34 -64 101 -182 c56 -100 101
-186 101 -192 0 -8 -297 -11 -1025 -11 l-1025 0 -24 -38 c-13 -21 -36 -61 -51
-88 l-27 -49 116 -239 c64 -131 113 -242 110 -247 -3 -6 -215 -9 -507 -9
l-502 1 -3 -1066 -2 -1065 557 -2 558 -3 5 -2262 5 -2263 320 -201 c315 -199
595 -375 1123 -707 147 -93 416 -263 597 -377 343 -217 516 -326 970 -612 149
-93 364 -229 479 -302 115 -72 214 -130 220 -128 6 3 182 114 391 247 209 134
502 320 650 415 149 94 583 371 965 615 1113 709 1376 877 1535 978 83 52 158
101 167 110 17 14 18 137 20 2251 l3 2236 490 5 490 5 3 1063 c2 846 0 1062
-10 1062 -7 0 -213 1 -458 3 l-445 2 1 25 c1 14 13 61 27 105 14 44 45 144 70
223 l44 142 -49 73 c-28 39 -55 75 -62 79 -6 4 -469 8 -1028 8 -1046 0 -1042
0 -1009 36 20 21 201 346 201 360 0 9 -21 54 -46 100 l-46 84 -1949 0 -1949 0
-18 -29z m1846 -705 c2 -385 0 -491 -10 -498 -15 -9 -3339 -11 -3363 -2 -12 5
-215 401 -215 420 0 2 463 4 1029 4 l1030 0 19 28 c33 48 82 141 82 156 0 8
-45 94 -99 193 -54 98 -97 181 -94 186 2 4 367 6 811 5 l807 -3 3 -489z m1862
485 c0 -4 -49 -94 -109 -199 l-110 -190 47 -89 47 -88 1045 -3 c574 -1 1047
-5 1052 -10 4 -4 -14 -75 -41 -157 -26 -83 -54 -171 -61 -197 -10 -32 -20 -48
-34 -52 -29 -8 -3390 -7 -3410 0 -14 5 -16 58 -16 493 0 268 3 491 7 494 10
10 1583 8 1583 -2z m-5531 -1733 c52 -25 101 -95 101 -145 l0 -33 -65 0 c-53
0 -65 3 -65 16 0 8 -13 29 -29 45 -25 24 -37 29 -81 29 -74 0 -110 -22 -110
-67 0 -31 35 -51 138 -80 175 -49 234 -106 234 -224 0 -81 -36 -142 -107 -178
-58 -31 -180 -41 -250 -21 -80 22 -144 95 -160 182 l-7 36 44 7 c23 3 51 9 60
11 13 4 21 -3 28 -23 30 -83 59 -103 145 -103 49 0 60 4 86 29 39 39 39 82 2
109 -16 10 -59 27 -98 37 -143 37 -199 73 -230 147 -21 51 -19 93 6 145 38 79
123 117 244 108 41 -3 88 -14 114 -27z m5506 -7 c36 -20 59 -43 83 -82 18 -30
31 -60 30 -68 -3 -13 -80 -40 -114 -41 -6 0 -18 16 -27 35 -25 52 -71 77 -130
72 -58 -5 -95 -30 -122 -83 -30 -58 -29 -243 1 -294 60 -103 200 -107 247 -7
9 19 17 40 17 45 0 6 4 13 9 16 14 9 116 -31 119 -47 5 -25 -44 -111 -81 -144
-53 -47 -114 -66 -194 -61 -152 9 -248 103 -274 269 -33 211 61 381 231 420
60 13 150 0 205 -30z m1492 7 c61 -29 110 -80 142 -147 23 -50 26 -68 26 -171
0 -103 -3 -121 -26 -170 -37 -78 -71 -114 -141 -149 -77 -39 -176 -43 -262
-10 -140 52 -218 222 -187 404 26 145 112 243 236 266 61 12 162 1 212 -23z
m-6539 -116 l3 -133 122 3 122 3 5 130 5 130 60 0 60 0 3 -337 2 -338 -65 0
-65 0 0 145 c0 80 -3 145 -7 145 -5 0 -61 1 -125 3 l-118 2 -2 -145 -3 -145
-65 0 -65 0 -2 325 c-2 179 -1 331 2 338 3 9 23 12 67 10 l63 -3 3 -133z
m1062 -200 c90 -236 124 -335 115 -338 -7 -3 -39 -4 -71 -2 l-58 3 -27 70 -26
70 -131 3 c-128 3 -131 2 -138 -20 -3 -13 -15 -47 -26 -75 l-19 -53 -63 0
c-34 0 -65 2 -68 5 -5 5 229 638 245 663 6 9 29 12 74 10 l65 -3 128 -333z
m420 203 l5 -130 122 -3 122 -3 3 133 3 133 65 0 65 0 0 -335 0 -335 -65 0
-65 0 -5 144 -5 144 -115 -1 c-63 -1 -118 -2 -122 -2 -5 0 -8 -65 -8 -145 l0
-145 -65 0 -65 0 0 333 c0 184 3 337 7 341 4 4 32 6 63 4 l55 -3 5 -130z
m1989 118 c12 -23 251 -648 251 -657 0 -4 -32 -6 -71 -4 l-72 3 -25 73 -26 73
-130 -3 -131 -3 -25 -70 -25 -70 -68 -3 c-37 -2 -67 1 -67 6 0 8 219 602 240
650 8 20 17 22 74 22 52 0 67 -4 75 -17z m668 -198 c68 -115 127 -211 131
-213 4 -1 7 94 7 210 l0 213 60 0 60 0 0 -335 0 -335 -65 0 -65 0 -123 205
c-68 113 -126 206 -130 208 -4 1 -7 -91 -7 -205 l0 -208 -60 0 -60 0 -3 325
c-1 179 0 331 3 338 3 9 23 12 66 10 l62 -3 124 -210z m1363 80 l5 -130 122
-3 122 -3 3 133 3 133 65 0 65 0 0 -335 0 -335 -65 0 -65 0 -5 144 -5 143
-120 0 -120 0 -3 -146 -3 -146 -64 0 -65 0 0 340 0 341 63 -3 62 -3 5 -130z
m1775 124 c72 -13 109 -38 135 -89 24 -46 26 -126 6 -173 -18 -42 -62 -82
-108 -96 l-37 -12 43 -42 c36 -36 146 -199 163 -243 4 -11 -10 -14 -71 -14
l-76 0 -84 128 c-88 133 -109 152 -171 152 l-34 0 -3 -137 -3 -138 -65 0 -65
0 -3 325 c-1 179 0 330 3 337 6 17 285 18 370 2z m-4705 -41 c0 -7 -3 -30 -6
-50 -6 -37 -8 -38 -51 -38 -90 0 -137 -42 -113 -104 13 -34 39 -46 103 -46
l55 0 6 44 c7 46 20 56 74 56 23 0 25 -3 26 -60 1 -34 2 -35 46 -40 43 -5 45
-6 42 -34 -5 -47 -19 -64 -54 -68 l-33 -3 2 -115 c3 -159 4 -156 -64 -170
-176 -37 -318 31 -331 159 -7 72 5 116 39 151 l31 30 -26 30 c-32 39 -42 91
-26 143 25 86 93 124 223 126 39 1 57 -3 57 -11z m-2522 -3523 l2 -2160 113
-71 c61 -39 184 -118 272 -174 88 -57 354 -227 590 -378 237 -152 491 -314
565 -362 74 -48 272 -174 440 -282 168 -107 377 -241 465 -298 653 -419 787
-502 803 -498 9 3 485 295 1057 650 572 355 1319 819 1660 1030 l620 384 5
2160 5 2159 113 3 112 3 -2 -2178 -3 -2177 -280 -178 c-154 -99 -406 -259
-560 -357 -154 -98 -451 -288 -660 -421 -209 -134 -600 -383 -870 -555 -269
-172 -629 -401 -800 -510 -170 -108 -315 -199 -321 -202 -7 -2 -74 35 -151 83
-76 48 -257 162 -403 254 -146 92 -395 249 -555 350 -272 172 -416 262 -1090
687 -148 93 -382 241 -520 328 -137 86 -358 225 -490 308 -132 83 -248 157
-257 165 -17 14 -18 132 -18 2209 l0 2194 78 -3 77 -3 3 -2160z m3150 1977 c2
-141 0 -183 -10 -186 -7 -2 -65 -11 -128 -21 -207 -30 -388 -85 -578 -175
-143 -68 -207 -88 -334 -105 -93 -13 -130 -13 -290 0 -101 9 -202 13 -224 9
-94 -14 -143 -78 -144 -189 0 -33 5 -133 12 -223 21 -282 -10 -445 -133 -707
-38 -82 -95 -280 -127 -445 -24 -124 -23 -510 2 -635 37 -191 71 -316 157
-580 94 -292 91 -271 98 -650 7 -381 7 -382 79 -412 31 -13 68 -14 227 -8 104
4 244 7 310 7 131 0 173 -9 316 -75 118 -55 147 -67 269 -109 133 -45 275 -83
375 -98 39 -6 82 -13 98 -16 l27 -6 0 -619 c0 -396 -4 -619 -10 -619 -5 0 -56
30 -112 67 -87 55 -614 394 -1083 693 -106 68 -965 618 -1522 975 l-203 130 0
2086 c0 1147 3 2089 7 2092 3 4 662 6 1462 5 l1456 -3 3 -183z m3212 -1905 l0
-2093 -557 -346 c-307 -190 -962 -596 -1456 -902 -493 -306 -902 -554 -907
-551 -12 7 -14 1143 -2 1162 4 6 59 19 122 28 228 33 399 87 650 203 l165 77
373 3 372 3 0 317 c0 174 5 361 10 415 9 90 13 103 45 147 112 152 209 515
236 885 31 409 -63 873 -247 1224 l-39 74 -3 383 -3 384 -307 0 c-404 1 -426
4 -539 69 -201 116 -485 205 -736 231 -54 5 -94 14 -98 22 -10 15 -12 318 -3
342 6 15 144 16 1465 16 l1459 0 0 -2093z m-2813 1358 c12 -33 29 -102 38
-152 15 -83 20 -93 39 -93 57 -1 183 -46 317 -114 81 -41 172 -80 202 -86 57
-13 55 -14 167 50 37 21 129 27 172 11 33 -12 90 -62 186 -163 l83 -86 -27
-59 c-98 -213 -100 -259 -24 -453 29 -74 68 -180 87 -235 19 -55 42 -107 52
-116 9 -9 60 -36 114 -59 170 -74 194 -98 209 -216 11 -90 3 -223 -18 -272
-14 -35 -51 -55 -214 -118 -79 -31 -130 -66 -130 -91 0 -23 -83 -267 -124
-363 -20 -47 -36 -101 -36 -122 0 -21 23 -100 51 -175 28 -76 52 -147 52 -158
2 -14 -40 -60 -130 -148 l-133 -127 -48 0 c-66 0 -107 15 -168 61 -76 58 -134
52 -322 -36 -42 -20 -129 -59 -192 -87 -63 -28 -121 -56 -127 -62 -7 -6 -17
-34 -22 -61 -13 -67 -69 -222 -88 -240 -12 -12 -54 -15 -228 -15 -240 0 -235
-1 -235 74 0 45 -27 161 -46 197 -22 43 -76 79 -159 105 -92 29 -166 60 -314
130 -112 53 -115 54 -135 36 -12 -10 -32 -25 -46 -34 -32 -20 -166 -68 -188
-68 -24 0 -137 87 -203 156 -68 72 -94 134 -85 199 4 25 30 91 58 147 49 99
50 102 34 127 -40 63 -102 194 -137 294 -81 226 -127 275 -286 307 -32 6 -66
14 -76 16 -16 5 -17 23 -15 242 l3 237 124 42 c68 23 134 52 147 64 25 23 37
52 80 194 15 50 48 137 72 195 83 197 79 178 49 241 -15 29 -36 91 -48 135
l-22 82 45 68 c53 82 211 252 242 260 14 3 49 -11 104 -42 119 -67 146 -75
202 -58 25 7 83 32 128 54 112 54 143 67 247 102 114 38 151 60 175 107 20 40
50 156 50 195 0 45 11 47 250 44 l225 -3 22 -60z"
        />
        <path
          d="M7800 8148 c-71 -36 -95 -89 -95 -208 0 -78 4 -102 23 -137 28 -53
72 -84 127 -91 57 -6 86 2 126 35 49 42 69 95 69 188 0 102 -12 143 -52 182
-60 58 -124 68 -198 31z"
        />
        <path
          d="M2299 7998 c-19 -57 -35 -109 -37 -115 -3 -10 18 -13 77 -13 53 0 81
4 81 11 0 19 -74 219 -81 219 -4 0 -22 -46 -40 -102z"
        />
        <path
          d="M4865 8088 c-3 -7 -18 -51 -34 -98 -16 -47 -32 -93 -36 -102 -6 -16
1 -18 73 -18 45 0 83 3 85 8 3 4 -11 48 -29 97 -19 50 -34 95 -34 102 0 18
-19 26 -25 11z"
        />
        <path
          d="M8520 8074 l0 -86 104 4 c83 2 108 7 124 21 43 39 35 113 -14 136
-14 6 -67 11 -119 11 l-95 0 0 -86z"
        />
        <path
          d="M3913 7876 c-35 -16 -53 -43 -53 -80 0 -67 54 -110 130 -104 l45 3 0
95 0 95 -45 2 c-25 2 -59 -4 -77 -11z"
        />
        <path
          d="M4721 5479 c-49 -15 -101 -50 -145 -99 -143 -159 -131 -429 26 -575
l51 -49 -24 -15 c-52 -34 -108 -94 -130 -139 -18 -37 -23 -65 -23 -127 -1 -70
3 -87 29 -133 16 -30 54 -76 84 -104 l55 -50 -3 -151 c-2 -158 -8 -217 -21
-217 -22 0 -85 107 -110 190 -32 102 -40 76 -40 -134 0 -108 3 -196 6 -196 4
0 22 14 41 30 34 30 50 35 91 24 17 -5 22 -14 22 -39 0 -40 -18 -94 -39 -118
-31 -36 -133 1 -236 86 l-34 28 45 84 c24 46 41 86 37 88 -21 13 -495 169
-499 164 -5 -5 10 -333 22 -495 6 -77 8 -84 34 -97 26 -14 30 -13 71 20 24 19
48 35 53 35 5 0 39 -24 76 -54 37 -30 109 -82 161 -116 101 -67 435 -236 484
-246 23 -4 57 7 145 46 219 99 410 212 537 318 66 55 83 61 103 37 7 -9 26
-25 41 -36 23 -16 32 -17 53 -8 14 7 28 19 30 28 3 9 10 133 16 276 6 143 13
265 15 272 2 7 0 15 -5 18 -10 6 -479 -150 -493 -164 -6 -6 7 -40 32 -86 22
-42 41 -81 41 -86 0 -13 -143 -105 -185 -119 -19 -6 -45 -10 -57 -8 -31 4 -58
61 -58 118 0 42 4 49 43 81 23 20 56 60 72 90 27 49 30 62 30 149 0 85 -3 100
-26 140 -15 25 -54 70 -88 101 l-61 56 0 79 c0 43 -3 116 -7 162 -4 59 -3 82
6 82 18 0 68 -86 82 -141 7 -27 19 -49 26 -49 10 0 13 27 13 118 0 180 -16
270 -34 197 -8 -33 -38 -48 -70 -35 -41 15 -34 54 20 112 145 155 145 411 0
566 -60 65 -122 94 -205 98 -36 2 -81 -1 -100 -7z m207 -113 c140 -88 175
-312 72 -455 -17 -23 -47 -51 -66 -63 -28 -16 -34 -26 -34 -53 l0 -33 -67 5
c-86 6 -93 8 -93 31 0 12 -14 25 -40 37 -186 84 -200 417 -22 529 51 32 66 35
142 32 51 -2 75 -9 108 -30z m-66 -656 c43 -12 44 -14 53 -232 4 -108 3 -138
-7 -138 -7 0 -49 20 -93 44 l-80 44 4 138 c2 77 5 142 8 147 6 10 72 9 115 -3z
m-202 -130 c0 -66 -10 -90 -24 -54 -8 20 -8 72 0 102 12 44 24 21 24 -48z
m153 -482 c102 -55 117 -70 117 -117 0 -21 3 -79 6 -128 l7 -91 -31 -16 c-36
-18 -124 -21 -171 -5 l-31 11 0 96 c0 128 11 292 20 292 4 0 41 -19 83 -42z
m-674 -234 c75 -25 140 -49 145 -54 4 -5 -8 -39 -28 -77 l-37 -68 36 -32 c99
-86 242 -163 303 -163 66 0 116 59 136 159 l11 54 118 1 117 1 6 -35 c10 -62
34 -116 65 -146 26 -25 38 -29 82 -28 35 0 68 9 102 26 69 36 225 148 225 162
0 6 -16 42 -35 78 -20 37 -32 68 -28 71 24 13 294 98 300 94 11 -7 -8 -357
-20 -357 -5 0 -22 11 -39 25 -36 31 -49 31 -74 4 -33 -37 -178 -147 -270 -205
-88 -54 -335 -179 -405 -204 -35 -12 -40 -11 -220 78 -205 100 -325 175 -444
276 -44 37 -85 70 -92 73 -7 2 -27 -7 -46 -21 -19 -14 -37 -26 -40 -26 -9 0
-15 68 -22 223 -4 100 -2 137 6 137 6 0 73 -21 148 -46z"
        />
        <path
          d="M4738 5217 c-36 -31 -48 -58 -48 -112 0 -82 45 -135 115 -135 70 0
115 53 115 135 0 83 -45 135 -117 135 -25 0 -47 -8 -65 -23z"
        />
        <path
          d="M9170 9961 l0 -50 73 -3 72 -3 3 -258 2 -258 48 3 47 3 5 255 5 255
70 5 70 5 0 45 0 45 -197 3 -198 2 0 -49z"
        />
        <path
          d="M9640 9699 l0 -310 43 3 42 3 5 225 c3 129 8 214 13 200 4 -14 26
-113 48 -220 22 -106 43 -198 45 -202 3 -4 25 -8 49 -8 l43 0 11 48 c12 56 55
263 71 345 7 32 14 56 18 53 3 -3 6 -104 6 -224 l1 -217 45 0 45 0 0 305 0
305 -74 0 c-87 0 -73 24 -121 -209 -36 -174 -39 -186 -48 -186 -4 0 -20 57
-35 128 -15 70 -35 160 -44 200 l-17 72 -73 0 -73 0 0 -311z"
        />
      </g>
    </svg>